<?xml version="1.0" standalone="no"?>
<!DOCTYPE svg PUBLIC "-//W3C//DTD SVG 20010904//EN"
 "http://www.w3.org/TR/2001/REC-SVG-20010904/DTD/svg10.dtd">
<svg version="1.0" xmlns="http://www.w3.org/2000/svg"
 width="940.000000pt" height="292.000000pt" viewBox="0 0 940.000000 292.000000"
 preserveAspectRatio="xMidYMid meet">

<g transform="translate(0.000000,292.000000) scale(0.100000,-0.100000)"
fill="#000000" stroke="none">
<path d="M1103 2569 c-85 -16 -107 -41 -126 -145 l-12 -69 -112 -34 -113 -34
-88 41 c-48 23 -98 42 -110 42 -38 0 -73 -24 -148 -102 -121 -125 -121 -170
-2 -288 37 -38 68 -76 67 -86 0 -11 -12 -44 -27 -74 l-27 -55 -73 -11 c-138
-21 -155 -53 -150 -286 3 -148 4 -158 26 -181 25 -26 88 -47 144 -47 41 0 51
-7 72 -47 27 -54 21 -67 -68 -148 -142 -130 -144 -164 -12 -297 84 -86 137
-118 191 -118 42 0 51 4 172 82 l92 59 73 -21 c108 -32 118 -41 118 -101 0
-67 21 -114 62 -136 27 -15 56 -18 168 -18 124 0 137 2 167 23 36 25 42 40 57
132 l11 65 80 22 c111 30 123 29 196 -19 90 -58 158 -88 200 -88 54 0 136 65
230 183 55 69 54 108 -6 175 -25 27 -67 67 -95 88 -27 21 -53 46 -56 56 -7 25
35 98 61 103 11 2 43 6 70 9 55 7 93 29 112 67 15 29 18 335 4 372 -14 37 -57
58 -138 70 l-73 10 -31 63 -32 64 69 73 c38 40 77 89 87 109 32 67 24 88 -77
197 -108 115 -157 126 -280 61 l-77 -41 -116 35 c-64 19 -120 41 -124 47 -4 7
-11 34 -14 60 -8 61 -38 107 -78 123 -40 17 -208 26 -264 15z m251 -78 c14
-16 33 -100 36 -163 0 -8 281 -98 308 -98 10 0 58 18 106 40 47 22 94 40 104
40 27 0 182 -162 182 -191 0 -15 -29 -53 -90 -115 -82 -84 -90 -95 -84 -121
10 -42 50 -124 78 -158 22 -27 29 -30 102 -33 57 -3 82 -8 92 -20 8 -11 12
-64 12 -179 0 -189 9 -175 -120 -196 l-75 -13 -27 -49 c-55 -100 -54 -103 61
-219 59 -60 101 -111 101 -123 0 -11 -39 -58 -95 -112 -115 -113 -109 -113
-273 -17 -62 36 -119 66 -126 66 -23 0 -221 -62 -243 -76 -20 -13 -23 -23 -23
-86 0 -106 -3 -108 -166 -108 -161 0 -164 2 -164 116 0 46 -5 75 -12 81 -14
10 -219 73 -238 73 -7 0 -66 -30 -130 -66 -161 -89 -161 -89 -271 23 -49 50
-89 98 -89 108 0 10 45 64 100 120 66 66 100 109 100 123 0 25 -31 95 -58 130
-14 18 -34 24 -105 33 -109 15 -107 11 -107 199 0 174 3 179 116 194 l79 11
33 55 c18 30 40 79 49 107 l17 53 -87 89 c-65 66 -87 95 -87 115 0 19 21 48
76 106 42 43 84 82 93 85 10 3 56 -16 110 -46 l92 -52 137 42 c75 23 142 47
149 54 7 7 15 44 19 82 10 108 19 113 185 114 102 1 118 -1 133 -18z"/>
<path d="M1153 2060 c-235 -43 -432 -243 -474 -484 -42 -243 68 -479 283 -609
96 -58 184 -81 303 -81 168 0 297 54 415 173 265 268 218 712 -95 910 -125 79
-296 115 -432 91z m279 -80 c214 -72 358 -275 358 -503 0 -145 -41 -252 -135
-356 -152 -167 -404 -219 -615 -128 -57 25 -157 103 -191 149 -168 229 -152
520 39 707 147 145 354 194 544 131z"/>
<path d="M1145 1867 c-128 -43 -227 -144 -270 -275 -27 -85 -18 -210 21 -292
58 -120 176 -207 311 -231 214 -38 421 117 464 345 13 70 -1 164 -33 233 -33
71 -117 155 -194 193 -60 31 -76 35 -163 37 -60 2 -111 -2 -136 -10z m266 -79
c72 -33 134 -94 168 -167 22 -48 26 -69 26 -151 0 -81 -4 -103 -24 -145 -33
-66 -100 -131 -169 -163 -49 -23 -70 -27 -152 -27 -84 0 -101 3 -145 27 -168
89 -239 285 -165 456 31 71 120 153 197 181 82 29 188 25 264 -11z"/>
<path d="M1149 1682 c-39 -20 -62 -41 -84 -77 -27 -44 -30 -57 -30 -129 0 -63
5 -90 22 -122 63 -119 187 -153 319 -89 64 31 88 57 79 84 -9 30 -31 26 -76
-13 -66 -56 -161 -56 -228 0 -82 69 -65 246 29 296 20 10 55 18 85 18 48 0 60
-5 129 -54 25 -17 29 -18 43 -4 44 45 -64 116 -178 117 -44 1 -69 -5 -110 -27z"/>
<path d="M8226 2285 c-62 -22 -89 -46 -121 -110 -29 -57 -30 -66 -34 -212 l-3
-153 -84 0 -84 0 0 -65 0 -65 85 0 85 0 0 -330 0 -330 75 0 75 0 0 330 0 330
90 0 90 0 0 65 0 65 -90 0 -90 0 0 118 c0 126 10 177 39 214 17 21 28 23 99
23 l80 0 6 59 c4 43 3 62 -6 68 -21 13 -170 8 -212 -7z"/>
<path d="M2600 1610 l0 -590 80 0 80 0 0 260 0 260 93 0 92 0 149 -260 149
-260 99 0 100 0 -23 38 c-13 20 -87 140 -165 266 l-143 229 63 21 c151 51 237
179 223 333 -11 111 -57 188 -144 240 -79 46 -128 53 -400 53 l-253 0 0 -590z
m482 439 c74 -16 133 -75 143 -142 14 -92 -16 -161 -87 -199 -39 -21 -59 -23
-210 -26 l-168 -4 0 191 0 191 135 0 c73 0 158 -5 187 -11z"/>
<path d="M7619 2169 c-39 -42 -41 -104 -3 -148 23 -27 32 -31 78 -31 42 0 57
5 74 23 73 78 30 187 -75 187 -37 0 -50 -5 -74 -31z"/>
<path d="M3845 1816 c-257 -62 -381 -356 -255 -606 37 -73 100 -134 180 -173
61 -30 71 -32 175 -32 80 0 124 5 162 18 59 21 157 88 174 119 10 19 7 25 -22
49 -65 53 -71 54 -113 14 -52 -49 -90 -66 -156 -72 -75 -7 -156 18 -211 65
-43 37 -78 100 -79 140 l0 22 315 0 315 0 0 68 c-1 281 -216 453 -485 388z
m228 -139 c51 -30 97 -108 97 -164 l0 -33 -235 0 c-266 0 -253 -5 -214 80 27
60 64 98 124 127 67 33 162 28 228 -10z"/>
<path d="M4691 1820 c-133 -28 -223 -145 -205 -265 14 -94 68 -143 204 -180
185 -52 220 -73 220 -135 0 -115 -198 -137 -318 -35 l-32 27 -56 -47 -55 -48
42 -43 c54 -55 123 -84 214 -91 145 -11 278 37 332 119 22 32 28 56 31 108 5
88 -10 131 -61 175 -39 34 -66 44 -244 95 -104 29 -146 83 -107 139 47 66 180
66 251 -1 12 -11 29 -18 37 -15 25 10 105 71 106 81 0 20 -81 84 -127 100 -58
21 -172 28 -232 16z"/>
<path d="M6498 1816 c-57 -20 -124 -63 -147 -93 l-20 -28 -1 58 0 57 -70 0
-70 0 0 -395 0 -395 74 0 75 0 3 258 c3 242 4 259 25 298 45 85 116 123 205
111 52 -7 88 -33 113 -83 18 -36 20 -63 23 -311 l3 -273 75 0 74 0 0 241 c0
142 5 258 11 284 25 97 107 153 212 142 55 -5 93 -29 122 -78 18 -31 20 -55
23 -311 l3 -278 75 0 74 0 0 265 c0 334 -12 396 -92 472 -44 43 -97 63 -177
70 -95 8 -170 -20 -235 -88 -44 -46 -50 -49 -59 -32 -52 95 -207 149 -319 109z"/>
<path d="M5262 1503 l3 -308 27 -51 c54 -102 146 -150 274 -142 93 6 173 44
215 101 l29 40 0 -61 0 -62 75 0 75 0 0 395 0 395 -74 0 -74 0 -4 -252 c-4
-273 -7 -290 -63 -356 -55 -66 -195 -82 -266 -31 -63 45 -69 73 -69 372 l0
267 -76 0 -75 0 3 -307z"/>
<path d="M7620 1415 l0 -395 75 0 75 0 0 395 0 395 -75 0 -75 0 0 -395z"/>
<path d="M8489 1768 c10 -24 84 -203 165 -399 l147 -357 -31 -80 c-58 -150
-87 -175 -193 -169 -76 5 -74 6 -79 -82 -3 -40 0 -45 22 -52 45 -13 157 -9
201 6 49 18 90 53 122 105 12 19 112 266 223 550 l202 515 -76 3 c-41 2 -78
-1 -83 -5 -4 -4 -55 -142 -114 -305 -59 -164 -110 -296 -114 -293 -4 2 -59
139 -121 304 l-115 301 -87 0 -87 0 18 -42z"/>
</g>
</svg>
